<svg version="1.0" xmlns="http://www.w3.org/2000/svg" width="933.333" height="933.333" viewBox="0 0 700 700"><path d="M309.9 66.4c-.2.2-3.1.6-6.4 1-4.7.5-21.6 3.5-28 5-.5.1-2.6.6-4.5 1-8.3 1.8-31.3 8.8-41 12.4-30.9 11.5-54.7 24.1-81 42.6-30.4 21.5-61.1 52.4-82.4 82.9-23.2 33.2-41.6 72.8-51.1 109.6-1.5 5.6-2.9 11.3-3.1 12.8-.3 1.5-.7 2.9-.9 3.3-.9 1.5-4.9 27.1-6 38.5-2 20.9-2 59.1 0 69.5.2 1.4.7 4.7 1 7.5.6 5.9 1.3 11.1 2 14.5.3 1.4 1.2 6.1 2 10.5 3.7 19.4 11.8 45.8 20.2 65.5 4.6 10.8 15.9 34 17.1 35.1.4.4 12.2-10.9 26.3-25l25.7-25.6-3.8-9.1c-6.2-14.8-12.8-36.2-14.5-46.8-.3-1.7-1-5.4-1.5-8.1-2.8-15.1-4.4-33.1-4.4-52 0-12.7.9-30.3 1.8-35.1.2-1.1.7-4.4 1.1-7.4.6-4.5 3.4-19.3 5-26 .2-.8 2-6.9 4-13.5 13-42.5 36.8-82 68.4-113.5 18.3-18.2 33.3-30 54.2-42.5 18.6-11.1 50.6-25.6 51.9-23.5.4.6.5 62.3.1 65.2-.1.4-3.8 2.6-8.2 4.9-33.4 16.7-63.3 44.1-83.6 76.2-6.6 10.6-14.4 25.9-18.3 36.2-1.2 3.3-2.6 6.9-3.1 8-1.4 3.3-5.9 19.7-6.5 23.5-.3 1.9-.9 5.1-1.4 7-.9 3.4-1.5 8.1-2.9 22.5-1.1 12-.3 38.6 1.5 47.8.2 1.2.6 3.9 1 6.2 1.4 9.7 6.5 30 7.9 31.4.3.3 12.4-11.3 26.8-25.8l26.1-26.3.2-15.7c.2-21.9 1.8-32.7 7.5-49.6 7.7-22.7 18.6-40.4 35.3-57.1 17.3-17.3 36.4-28.8 61.2-37l11.1-3.7v-98.8l.1-98.9h-3.3c-1.7 0-3.4.2-3.6.4zm75.5 99.1l.1 99 9.5 3.1c49.8 16.4 86.1 54.4 98.9 103.7 4 15.2 4.3 17.7 4.6 37.1l.3 16.9 26.8 26.9 26.9 26.8 2.3-7.2c5.7-17.7 8.9-41.1 8.6-62.9-.1-13.2-.9-26.1-1.9-29.9-.2-.8-.7-3.5-1-6-.4-2.5-1.9-9.5-3.5-15.5-14.6-56.6-54.4-107.7-105.7-135.6l-6.3-3.4v-66.7l2.5.6c1.3.3 6.3 2.4 11 4.6 4.7 2.2 8.8 4 9.1 4 .3 0 5.6 2.8 11.7 6.1 13.8 7.6 30.4 18.6 41.7 27.6 8 6.3 32.1 29.7 38.5 37.3 23.9 28.3 43.2 62.9 53.3 95.7 3.1 10 6 20.8 6.9 25.3.2 1.4.8 4.4 1.4 6.8.5 2.4 1.2 6.7 1.5 9.5.3 2.9.8 5.5 1 5.8 1.6 2.7 2.4 44 1.1 59.9-.7 8.6-1 11-2.7 21-.5 3-1.2 7.1-1.5 9-1 6-7.4 29.5-9.5 34.5-.4 1.1-2.2 5.8-4 10.5-1.8 4.7-4.1 10.3-5.2 12.4l-2 3.9 26 26 26 26 6.1-12c14.2-28.3 24.5-57.4 30.6-86.3.9-4.1 1.8-8.4 2.1-9.5.2-1.1.7-4 1-6.5.3-2.5.7-5.2.9-6 .2-.8.7-4.2 1-7.5.4-3.3 1.1-8.9 1.5-12.5.8-6.7.6-55.9-.3-59.5-.3-1.1-.8-4.7-1.1-8-.4-3.3-.9-7.1-1.1-8.5-.2-1.4-.9-5.7-1.5-9.5-.6-3.9-1.7-9.8-2.5-13.1-.8-3.4-1.6-7.3-1.9-8.5-1.3-6.5-5.2-19.8-9.3-31.9-28.6-84.4-89.3-155.1-167.6-195.4-25.3-13-51.9-23.1-75.7-28.6-7.4-1.7-11.2-2.6-16-3.5-3.3-.7-25.7-4.2-29.5-4.7l-3.1-.4v99.1zM215 489.2c-74 74.1-134.7 135-134.9 135.2-1.3 1.7 36.1 41.7 37.7 40.2.4-.4 52.8-52.7 116.4-116.4L350 432.5l116.2 116.2L582.5 665l12.1-12.3c10.3-10.5 19.6-20.7 24.2-26.8 1.1-1.4-16.8-19.7-132.2-135-73.3-73.4-134.2-134.1-135.2-135-1.8-1.4-9.3 5.9-136.4 133.3z"/></svg>