<svg width="142" height="60" viewBox="0 0 142 60" fill="none" xmlns="http://www.w3.org/2000/svg"><path d="M44.197 12.616c-2.753-1.097-5.446-2.166-7.81-3.105-4.197-1.668-7.359-2.923-7.983-3.191L24.8 4.776h-.001C20.025 2.728 16.594 1.258 15.062.65A6.579 6.579 0 009.743.48a5.623 5.623 0 00-2.76 2.969 5.695 5.695 0 00-.064 4.07 6.645 6.645 0 001.634 2.192 6.571 6.571 0 002.371 1.34c1.534.609 5.044 1.907 9.927 3.695 1.633.066 3.389.152 5.272.248a100.22 100.22 0 00-1.063-.402c-6.806-2.488-11.689-4.281-13.558-5.024l-.053-.021-.055-.017c-1.516-.478-2.83-1.645-3.165-3.251-.37-1.776.502-3.513 2.151-4.34a5.01 5.01 0 014.003.148l.05.024.05.02c1.508.6 4.912 2.058 9.7 4.11l3.604 1.544c.646.277 3.862 1.554 8.098 3.237a4789.857 4789.857 0 018.526 3.391 13.978 13.978 0 01-.214-1.798zm76.972 2.124c4.873-1.785 8.375-3.08 9.907-3.689a6.565 6.565 0 002.371-1.34 6.64 6.64 0 001.634-2.19 5.696 5.696 0 00-.064-4.071 5.62 5.62 0 00-2.76-2.969 6.574 6.574 0 00-5.318.169c-1.533.609-4.964 2.08-9.738 4.125l-.001.001-3.604 1.544c-.624.268-3.785 1.523-7.983 3.19-2.287.909-4.882 1.94-7.542 2.999a13.9 13.9 0 01-.2 1.792l1.178-.469c2.475-.986 4.89-1.945 7.043-2.8h.002l.021-.01 8.098-3.236 3.602-1.543h.002c4.789-2.053 8.192-3.512 9.7-4.111l.051-.02.049-.024a5.01 5.01 0 014.003-.148 4.039 4.039 0 011.935 2.108c.662 1.65.147 3.325-1.146 4.464a4.99 4.99 0 01-1.803 1.019l-.054.017-.054.021c-1.869.743-6.752 2.536-13.557 5.024-.185.067-.545.202-1.053.395 1.887-.098 3.646-.183 5.281-.248zM94.005 43.982c7.738 3.118 16.303 6.532 22.417 8.97l.006.001c4.219 1.682 7.27 2.898 8.076 3.23l5.132 2.128c3.429 1.353 4.955-1.826 5.353-2.833a6.016 6.016 0 00.406-2.859 3.643 3.643 0 00-.804-1.789 3.59 3.59 0 00-1.612-1.102l-5.168-1.995c-.67-.258-3.043-1.177-6.364-2.467a518.546 518.546 0 01-4.992-.235c5.557 2.163 9.849 3.827 10.793 4.19l5.201 2.008.033.01a2.023 2.023 0 011.348 1.585 4.416 4.416 0 01-.302 2.052l-.003.007-.002.006c-.17.431-.537 1.188-1.107 1.686a1.815 1.815 0 01-.853.442c-.3.059-.732.054-1.341-.185l-5.119-2.122-.003-.001c-.834-.344-3.942-1.583-8.222-3.289h-.001l-.005-.002a8074.972 8074.972 0 01-18.156-7.255 769.841 769.841 0 00-4.71-.18zm-73.473 1.291a3148.09 3148.09 0 01-6.343 2.46l-5.168 1.995A3.587 3.587 0 007.41 50.83a3.639 3.639 0 00-.805 1.79 6.01 6.01 0 00.407 2.858c.397 1.007 1.924 4.186 5.352 2.833l5.133-2.127c.805-.333 3.858-1.55 8.08-3.232l.002-.001h.002c6.126-2.443 14.713-5.865 22.463-8.988-1.628.056-3.197.117-4.711.18a7953.986 7953.986 0 01-18.21 7.277h-.001a1554.96 1554.96 0 00-8.222 3.29l-.003.001-5.118 2.122c-.61.239-1.041.244-1.341.185a1.82 1.82 0 01-.854-.442c-.57-.498-.936-1.255-1.107-1.686l-.002-.007-.002-.006a4.403 4.403 0 01-.302-2.052c.06-.357.213-.69.444-.967.24-.286.552-.5.903-.617l.034-.011 5.199-2.008h.002c.942-.363 5.224-2.022 10.768-4.181-1.776.092-3.436.172-4.989.233zm8.958-2.04c5.251-.285 11.441-.62 18.811-.873 0 0 13.914-.788 22.83-.783 8.915.006 22.828.81 22.828.81 7.355.257 13.737.591 19.08.871h.001c5.89.309 10.518.551 13.793.551 9.008 0 15.167-6.936 15.167-13.872 0-6.873-4.753-13.74-15.048-13.74-3.868 0-8.716.259-14.769.582-4.426.236-9.495.507-15.297.736 0 0-15.696.8-25.754.802-10.057.003-25.754-.79-25.754-.79-5.952-.232-11.15-.508-15.676-.748-6.086-.323-10.96-.582-14.83-.582C4.571 16.197 0 22.97 0 29.937 0 36.905 4.597 43.81 14.97 43.81c3.875 0 8.6-.256 14.52-.576z" fill="#fff"/><path d="M94.841 38.168c4.053.145 7.803.313 11.239.481 2.64.129 5.075.256 7.309.373h.001c5.827.305 10.285.539 13.443.539 1.359 0 2.612-.206 3.747-.57l-7.93-7.447a.522.522 0 00-.73.014l-4.924 4.97a.521.521 0 01-.743 0L104.637 24.8a.523.523 0 00-.744 0l-3.99 4.028a.522.522 0 01-.743 0l-5.177-5.226c.805 2.683 1.257 5.063 1.376 7.468.114 2.289-.077 4.553-.513 7.07l-.005.027zM48.397 23.22l-5.557 5.61a.522.522 0 01-.744 0l-3.99-4.028a.522.522 0 00-.743 0L25.747 36.529a.522.522 0 01-.743 0l-4.923-4.97a.522.522 0 00-.73-.014l-8.089 7.596c1.067.266 2.296.42 3.708.42 3.753 0 8.315-.247 14.186-.565 2.024-.109 4.202-.227 6.557-.346a771.9 771.9 0 0111.709-.51c-.435-2.513-.627-4.777-.514-7.065.123-2.52.612-5.013 1.489-7.855z" fill="#2E58FF"/><path fill-rule="evenodd" clip-rule="evenodd" d="M71.133 6.74a10.763 10.763 0 00-3.959-.94c-3.11 0-6.317 2.348-8.149 2.348-1.542 0-6.605-4.694-7.914-4.694h-.234c-3.483 0-5.122 4.744-5.122 8.448 0 4.011 2.09 8.208 5.122 8.916-2.964 8.128-3.031 12.552-1.162 20.646l.894-.745c1.08 4.55 5.017 9.19 7.89 12.072C60.142 54.438 68.42 60 71.133 60c2.714 0 10.996-5.562 12.63-7.21 2.89-2.882 6.816-7.52 7.89-12.071l.9.745c1.872-8.102 1.797-12.518-1.167-20.646 3.018-.708 5.121-4.905 5.121-8.916 0-3.704-1.639-8.427-5.121-8.427h-.23c-1.309 0-6.376 4.694-7.919 4.694-1.831 0-5.038-2.347-8.148-2.347a10.721 10.721 0 00-3.956.918z" fill="#fff"/><path fill-rule="evenodd" clip-rule="evenodd" d="M49.017 8.38c.158-.692.601-1.64 1.396-1.64h.464c1.008 0 5.339 2.89 6.518 3.519v1.17c.874-.42 7.73-2.814 8.617-2.814h.928c2.053 0 2.96 1.264 4.18 2.107 1.23-.843 2.141-2.107 4.182-2.107h.974c.886 0 7.739 2.394 8.612 2.815v-1.171c1.18-.628 5.51-3.519 6.518-3.519h.469c.794 0 1.233.948 1.396 1.64-2.776-1.34-4.523 3.884-5.435 5.747l-1.304-1.054c0 5.706 1.095 4.694 2.634 8.609 1.898 4.841 2.843 9.489 2.232 14.646l-1.61-1.197c-.066 3.14-3.378 8.053-5.351 9.384.272-1.175 1.187-3.067 1.672-4.66 1.255-4.277.306-8.642-.263-12.94l-.318.169-1.547 1.264a14.921 14.921 0 00-1.998-5.023c-1.112-1.685-2.304-2.663-3.09-3.826l2.76-1.264c-.92-3.308-8.584-.034-8.722-3.674l-1.79.842-1.789-.842c-.142 3.623-7.805.366-8.68 3.674l2.76 1.264c-.786 1.163-1.977 2.149-3.085 3.826a14.839 14.839 0 00-2.02 4.989L56.78 27.05l-.317-.169c-.565 4.298-1.535 8.663-.264 12.94.473 1.593 1.393 3.485 1.673 4.66-1.974-1.331-5.29-6.244-5.356-9.383l-1.614 1.222c-.614-5.158.33-9.805 2.233-14.647 1.534-3.914 2.63-2.903 2.63-8.608l-1.3 1.053c-.929-1.862-2.677-7.087-5.436-5.747l-.013.008zm22.116-1.64a10.763 10.763 0 00-3.959-.94c-3.11 0-6.317 2.348-8.149 2.348-1.542 0-6.605-4.694-7.914-4.694h-.234c-3.483 0-5.122 4.744-5.122 8.448 0 4.011 2.09 8.208 5.122 8.916-2.964 8.128-3.031 12.552-1.162 20.646l.894-.745c1.08 4.55 5.017 9.19 7.89 12.072C60.142 54.438 68.42 60 71.133 60c2.714 0 10.996-5.562 12.63-7.21 2.89-2.882 6.816-7.52 7.89-12.071l.9.745c1.872-8.102 1.797-12.518-1.167-20.646 3.018-.708 5.121-4.905 5.121-8.916 0-3.704-1.639-8.427-5.121-8.427h-.23c-1.309 0-6.376 4.694-7.919 4.694-1.831 0-5.038-2.347-8.148-2.347a10.721 10.721 0 00-3.956.918zm0 28.623h-1.166c-1.204 0-2.275-.46-2.793-1.171l.569-1.125a7.732 7.732 0 01-1.255.185h-.945c-1.83 0-.932-3.906-.932-5.398 0-2.35-.903-5.738.519-7.222.995-1.045 3.002-3.1 4.837-3.1h2.329c1.835 0 3.846 2.055 4.841 3.1 1.418 1.484.514 4.871.514 7.223 0 1.491.904 5.397-.932 5.397h-.932a7.729 7.729 0 01-1.255-.185l.556 1.146c-.518.712-1.584 1.171-2.792 1.171l-1.163-.02zM90.98 19.145c2.35-2.006 3.285-4.764 2.805-8.275-.836 3.455-2.117 5.571-3.842 6.35l1.037 1.925zm-39.698 0c-2.35-2.006-3.284-4.764-2.805-8.275.836 3.455 2.117 5.571 3.842 6.35l-1.037 1.925z" fill="#2E58FF"/><path fill-rule="evenodd" clip-rule="evenodd" d="M71.133 31.727l-5.125-.628.652-1.626c4.068.143 3.876-3.927 2.508-4.34-2.63-.793-4.95-4.715 1.731-6.194h.464c6.69 1.479 4.365 5.401 1.731 6.194-1.367.42-1.56 4.483 2.509 4.344l.673 1.622-5.143.628zm-.873-11.082c.12.3-.419.8-1.225 1.12-.807.321-1.535.342-1.673.047-.138-.295.418-.8 1.225-1.125.807-.324 1.539-.341 1.673-.042z" fill="#2E58FF"/></svg>