<svg width="120" height="53" viewBox="0 0 120 53" fill="none" xmlns="http://www.w3.org/2000/svg"><path d="M37.35 10.547c-2.327-.917-4.602-1.811-6.6-2.596-3.547-1.394-6.22-2.444-6.747-2.668l-3.045-1.29h-.001c-4.035-1.711-6.934-2.94-8.229-3.45a5.609 5.609 0 00-4.494-.14 4.713 4.713 0 00-2.387 5.884 5.56 5.56 0 003.385 2.952c1.296.51 4.262 1.594 8.388 3.09 1.38.055 2.864.126 4.456.207a96.65 96.65 0 00-.899-.337C15.426 10.12 11.3 8.621 9.72 8l-.045-.017-.046-.015c-1.281-.4-2.392-1.376-2.675-2.718-.313-1.485.424-2.937 1.818-3.628a4.274 4.274 0 013.383.123l.042.02.043.017c1.274.501 4.15 1.72 8.197 3.436.953.405 1.97.836 3.045 1.29.546.232 3.263 1.3 6.843 2.707 1.825.717 3.873 1.521 5.972 2.348l1.234.487c-.093-.496-.154-1-.181-1.503zm65.047 1.775c4.118-1.492 7.077-2.574 8.372-3.083a5.564 5.564 0 003.384-2.952 4.712 4.712 0 00-2.387-5.885 5.608 5.608 0 00-4.494.141c-1.295.51-4.194 1.739-8.229 3.45l-3.046 1.29c-.528.224-3.2 1.274-6.746 2.668-1.934.759-4.126 1.62-6.374 2.506-.023.502-.08 1.004-.17 1.499a3671.352 3671.352 0 016.948-2.733l.002-.001.018-.007 6.843-2.706 3.044-1.29h.001c4.047-1.717 6.923-2.936 8.198-3.437l.043-.017.041-.02a4.277 4.277 0 013.383-.123 3.387 3.387 0 011.635 1.762c.56 1.38.124 2.78-.968 3.732a4.236 4.236 0 01-1.523.851l-.047.015-.045.018c-1.579.62-5.706 2.12-11.457 4.2-.156.055-.46.169-.89.33 1.596-.082 3.081-.153 4.464-.208zM79.441 36.768c6.54 2.607 13.777 5.46 18.944 7.498l.004.002c3.566 1.406 6.145 2.423 6.825 2.7l4.337 1.779c2.898 1.131 4.188-1.527 4.524-2.368a4.982 4.982 0 00.344-2.39 3.035 3.035 0 00-2.042-2.417l-4.367-1.669c-.567-.215-2.573-.983-5.379-2.062-1.284-.052-2.692-.12-4.218-.196 4.695 1.809 8.323 3.199 9.12 3.502l4.395 1.68.029.009a1.701 1.701 0 011.139 1.323 3.65 3.65 0 01-.256 1.717l-.002.005-.002.005c-.144.36-.453.993-.935 1.41-.224.193-.46.319-.721.37-.254.048-.618.044-1.133-.155l-4.326-1.774-.002-.001a1363.4 1363.4 0 00-6.949-2.75l-.005-.002c-4.25-1.676-9.868-3.89-15.343-6.065a658.986 658.986 0 00-3.98-.15zm-62.09 1.08c-2.796 1.075-4.795 1.84-5.36 2.056l-4.368 1.668a3.033 3.033 0 00-2.041 2.417 4.975 4.975 0 00.343 2.39c.336.841 1.626 3.499 4.524 2.368l4.337-1.779c.68-.277 3.26-1.295 6.828-2.701h.001l.001-.001h.001A5714.935 5714.935 0 0040.6 36.751c-1.375.047-2.701.098-3.98.15-5.49 2.18-11.128 4.404-15.39 6.084a1330.115 1330.115 0 00-6.948 2.75h-.003L9.954 47.51c-.516.199-.88.203-1.134.154a1.544 1.544 0 01-.721-.37c-.481-.416-.791-1.049-.935-1.41l-.002-.004-.002-.005a3.645 3.645 0 01-.255-1.717 1.695 1.695 0 011.139-1.323l.028-.01 4.393-1.678h.002c.796-.304 4.415-1.69 9.1-3.496a366.2 366.2 0 01-4.216.196z" fill="#3D414C"/><path d="M80.147 31.908c3.425.122 6.594.262 9.498.403 2.231.107 4.289.214 6.177.312 4.924.255 8.692.45 11.361.45 1.148 0 2.207-.172 3.166-.476l-6.702-6.226a.445.445 0 00-.617.011l-4.16 4.155a.445.445 0 01-.629 0l-9.816-9.803a.445.445 0 00-.628 0l-3.371 3.367a.445.445 0 01-.629 0l-4.375-4.369c.68 2.244 1.062 4.233 1.163 6.243.096 1.914-.066 3.807-.434 5.91l-.004.023zM40.9 19.41l-4.696 4.69a.445.445 0 01-.629 0l-3.371-3.367a.445.445 0 00-.629 0l-9.816 9.803a.445.445 0 01-.628 0l-4.16-4.155a.445.445 0 00-.618-.011l-6.835 6.35c.902.223 1.94.351 3.133.351 3.172 0 7.027-.206 11.989-.472 1.71-.091 3.55-.19 5.54-.29a652.63 652.63 0 019.896-.425c-.368-2.102-.53-3.994-.435-5.907.104-2.107.517-4.19 1.259-6.567z" fill="#2E58FF"/><path d="M39.819 16.928a694.292 694.292 0 01-9.387-.405c-1.962-.097-3.793-.193-5.504-.283-5.119-.269-9.153-.48-12.36-.48-3.845 0-6.372 1.234-7.943 2.874-1.597 1.667-2.403 3.958-2.403 6.393 0 2.433.81 4.756 2.427 6.453 1.587 1.667 4.135 2.924 8.002 2.924 3.21 0 7.117-.21 12.094-.476 1.704-.091 3.533-.19 5.502-.288 3.033-.151 6.38-.303 10.08-.432.117.568.246 1.152.387 1.758l.104.446c-6.228.211-11.46.492-15.896.73-5.003.267-8.997.481-12.271.481C3.885 36.623 0 30.851 0 25.027 0 19.202 3.863 13.54 12.567 13.54c3.271 0 7.39.217 12.533.487 3.826.2 8.218.432 13.248.625.11.242.23.478.357.707.31.558.682 1.093 1.114 1.569zm39.583 18.507c6.215.215 11.609.494 16.124.728 4.979.258 8.889.46 11.657.46 7.612 0 12.817-5.798 12.817-11.596 0-5.746-4.017-11.487-12.717-11.487-3.268 0-7.365.216-12.48.487-3.74.197-8.025.423-12.927.615a10.01 10.01 0 01-.363.718 8.47 8.47 0 01-1.105 1.558c3.29-.12 6.313-.257 9.088-.395 1.954-.097 3.776-.193 5.479-.283 5.092-.269 9.104-.48 12.308-.48 3.835 0 6.409 1.25 8.026 2.914 1.642 1.691 2.469 3.986 2.469 6.353 0 4.502-4.138 9.377-10.595 9.377-2.706 0-6.527-.198-11.472-.454a1708.7 1708.7 0 00-6.13-.31 732.25 732.25 0 00-9.687-.409c-.115.56-.243 1.137-.382 1.735l-.11.469z" fill="#2E58FF"/><path fill-rule="evenodd" clip-rule="evenodd" d="M41.423 7.004c.134-.578.509-1.37 1.18-1.37h.392c.852 0 4.512 2.416 5.508 2.94v.98c.739-.352 6.533-2.353 7.282-2.353h.785c1.734 0 2.5 1.057 3.533 1.761 1.038-.704 1.809-1.761 3.533-1.761h.823c.749 0 6.54 2 7.278 2.353v-.98c.997-.524 4.657-2.94 5.508-2.94h.396c.671 0 1.042.792 1.18 1.37-2.346-1.12-3.823 3.247-4.593 4.804l-1.102-.88c0 4.769.925 3.924 2.226 7.196 1.604 4.047 2.402 7.933 1.886 12.244l-1.36-1c-.056 2.624-2.855 6.731-4.522 7.844.23-.983 1.003-2.564 1.413-3.896 1.06-3.575.258-7.224-.223-10.817l-.268.14-1.307 1.058a12.38 12.38 0 00-1.69-4.2c-.94-1.408-1.946-2.226-2.61-3.198l2.332-1.056c-.778-2.766-7.254-.029-7.37-3.072l-1.513.705-1.512-.705c-.12 3.03-6.596.306-7.335 3.072l2.332 1.056c-.664.973-1.671 1.797-2.607 3.199a12.328 12.328 0 00-1.707 4.17l-1.307-1.056-.269-.141c-.477 3.593-1.296 7.242-.222 10.817.399 1.332 1.176 2.913 1.413 3.896-1.668-1.113-4.47-5.22-4.526-7.844l-1.364 1.021c-.52-4.311.28-8.197 1.887-12.244 1.297-3.272 2.222-2.427 2.222-7.197l-1.099.881c-.784-1.557-2.26-5.925-4.593-4.805l-.01.008zm18.69-1.37a9.177 9.177 0 00-3.346-.786c-2.628 0-5.338 1.962-6.886 1.962-1.303 0-5.582-3.924-6.688-3.924h-.198c-2.943 0-4.328 3.966-4.328 7.062 0 3.354 1.767 6.862 4.328 7.454-2.505 6.795-2.561 10.493-.982 17.26l.756-.623c.912 3.804 4.24 7.682 6.667 10.091 1.389 1.378 8.384 6.027 10.677 6.027 2.293 0 9.292-4.65 10.674-6.027 2.441-2.409 5.759-6.287 6.667-10.092l.76.624c1.582-6.774 1.519-10.465-.986-17.26 2.55-.592 4.328-4.1 4.328-7.454 0-3.096-1.385-7.045-4.328-7.045h-.194c-1.106 0-5.389 3.924-6.692 3.924-1.548 0-4.258-1.962-6.886-1.962a9.142 9.142 0 00-3.343.768zm0 23.927h-.986c-1.017 0-1.922-.384-2.36-.979l.48-.94c-.348.08-.702.132-1.06.155h-.798c-1.547 0-.788-3.266-.788-4.513 0-1.965-.763-4.797.439-6.037.84-.874 2.536-2.593 4.087-2.593h1.968c1.552 0 3.25 1.72 4.092 2.593 1.198 1.24.434 4.072.434 6.037 0 1.247.764 4.513-.787 4.513h-.788a6.591 6.591 0 01-1.06-.155l.47.958c-.439.595-1.34.98-2.36.98l-.983-.018zm16.772-13.558c1.986-1.676 2.776-3.982 2.37-6.918-.706 2.889-1.788 4.658-3.246 5.309l.876 1.61zm-33.547 0c-1.986-1.676-2.776-3.982-2.37-6.918.706 2.889 1.788 4.658 3.246 5.309l-.876 1.61z" fill="#3D414C"/><path fill-rule="evenodd" clip-rule="evenodd" d="M60.113 26.522l-4.331-.525.55-1.36c3.438.12 3.276-3.283 2.12-3.628-2.222-.662-4.183-3.942 1.463-5.178h.392c5.654 1.236 3.69 4.516 1.463 5.178-1.155.352-1.318 3.748 2.12 3.632l.569 1.356-4.346.525zm-.738-9.264c.102.25-.353.669-1.035.936-.682.268-1.297.286-1.414.04-.116-.247.354-.67 1.035-.941.682-.271 1.3-.286 1.414-.035z" fill="#3D414C"/><path d="M94.731 50.316l-2.13 2.127c-.14.14-.04.379.157.379h6.038a.222.222 0 00.158-.38l-1.538-1.534a.223.223 0 00-.314 0l-.575.573a.222.222 0 01-.314 0l-1.167-1.165a.222.222 0 00-.315 0z" fill="#F66A17"/></svg>