<svg width="110" height="48" viewBox="0 0 110 48" xmlns="http://www.w3.org/2000/svg"><path d="M9.463 15.222l4.377 9.387h-3.598L7.154 18.01l-3.087 6.6H.469l4.403-9.387L.47 5.836h3.598l3.087 6.597 3.088-6.597h3.598l-4.377 9.386zM25.89 5.836c.591 0 1.075.188 1.45.563.359.358.538.814.538 1.368v14.91c0 .537-.18.993-.537 1.369-.376.375-.86.563-1.45.563h-8.108c-.573 0-1.048-.188-1.424-.564a1.861 1.861 0 01-.563-1.367V7.767c0-.554.188-1.01.564-1.368.375-.375.85-.563 1.422-.563h8.109zm-1.288 3.567c0-.358-.17-.537-.51-.537h-4.51c-.34 0-.51.18-.51.537v11.639c0 .357.17.536.51.536h4.51c.34 0 .51-.178.51-.536V9.402zm15.462-3.567c.59 0 1.074.188 1.45.563.358.358.537.814.537 1.368v8.367c0 .537-.18.992-.537 1.368-.376.375-.86.563-1.45.563h-6.282v6.544h-3.276V5.836h9.558zm-1.289 3.567c0-.358-.17-.537-.51-.537h-4.483v6.142h4.483c.34 0 .51-.17.51-.51V9.403zm15.8-3.567c.59 0 1.073.188 1.45.563.357.358.536.814.536 1.368v14.91c0 .537-.179.993-.537 1.369-.376.375-.859.563-1.45.563h-8.108c-.572 0-1.047-.188-1.423-.564a1.86 1.86 0 01-.563-1.367V7.767c0-.554.188-1.01.563-1.368.376-.375.85-.563 1.423-.563h8.109zm-1.29 3.567c0-.358-.17-.537-.51-.537h-4.51c-.34 0-.51.18-.51.537v11.639c0 .357.17.536.51.536h4.51c.34 0 .51-.178.51-.536V9.402zm5.905 15.206V5.836h3.275v15.715h4.94V5.836h3.276v15.715h4.672V5.836h3.275V24.61H59.19z"/><path fill-rule="evenodd" clip-rule="evenodd" d="M9.463 15.222l4.377 9.387h-3.598L7.154 18.01l-3.087 6.6H.469l4.403-9.387L.47 5.836h3.598l3.087 6.597 3.088-6.597h3.598l-4.377 9.386zM7.155 11.73L4.256 5.538H0l4.543 9.684L0 24.907h4.257l2.897-6.192 2.898 6.192h4.256l-4.515-9.685 4.515-9.684h-4.256L7.155 11.73zm20.4 12.524l-.003.002c-.439.438-1.001.65-1.661.65h-8.108c-.646 0-1.198-.214-1.634-.65a2.158 2.158 0 01-.652-1.578V7.767c0-.628.216-1.163.654-1.581.436-.434.988-.648 1.631-.648h8.109c.66 0 1.222.213 1.66.65.42.42.625.954.625 1.579v14.91c0 .61-.207 1.141-.62 1.574l-.002.003zM16.36 6.399c.375-.375.85-.563 1.422-.563h8.109c.59 0 1.074.188 1.45.563.358.358.537.814.537 1.368v14.91c0 .537-.18.993-.537 1.369-.376.375-.86.563-1.45.563h-8.108c-.573 0-1.048-.188-1.424-.564a1.861 1.861 0 01-.563-1.367V7.767c0-.554.188-1.01.564-1.368zM41.727 17.71l-.002.003c-.439.437-1 .65-1.661.65H34.08v6.544h-3.872V5.538h9.856c.66 0 1.222.213 1.66.65.42.42.625.954.625 1.579v8.367c0 .61-.206 1.14-.62 1.573l-.002.003zm-7.945.355h6.282c.59 0 1.074-.188 1.45-.563a1.91 1.91 0 00.537-1.368V7.767c0-.554-.18-1.01-.537-1.368-.376-.375-.86-.563-1.45-.563h-9.558V24.61h3.276v-6.544zm22.456 6.189l-.003.002c-.438.438-1 .65-1.66.65h-8.109c-.645 0-1.197-.214-1.634-.65a2.159 2.159 0 01-.65-1.578V7.767c0-.628.215-1.163.653-1.581.436-.434.987-.648 1.631-.648h8.109c.66 0 1.222.213 1.66.65.42.42.625.954.625 1.579v14.91c0 .61-.207 1.141-.62 1.574l-.002.003zM45.043 6.399c.376-.375.85-.563 1.423-.563h8.109c.59 0 1.073.188 1.45.563.357.358.536.814.536 1.368v14.91c0 .537-.179.993-.537 1.369-.376.375-.859.563-1.45.563h-8.108c-.572 0-1.047-.188-1.423-.564a1.86 1.86 0 01-.563-1.367V7.767c0-.554.188-1.01.563-1.368zm13.849 18.508V5.538h3.872v15.715h4.343V5.538h3.872v15.715h4.075V5.538h3.872v19.369H58.891zm16.46-3.356h-4.671V5.836h-3.276v15.715h-4.94V5.836H59.19V24.61h19.438V5.836h-3.275v15.715zm9.434-16.013V16.81l5.421-11.272h4.245v19.369h-3.819V13.55L85.16 24.907h-4.19V5.538h3.818zm15.549 0V16.81l5.42-11.272H110v19.369h-3.818V13.55l-5.475 11.356h-4.19V5.538h3.818zM24.258 9.206c-.01-.01-.046-.042-.166-.042h-4.51c-.12 0-.157.031-.167.042-.013.013-.045.06-.045.197v11.639c0 .136.032.183.045.197.01.01.046.041.166.041h4.51c.121 0 .157-.03.167-.041.013-.014.046-.06.046-.197V9.402c0-.136-.033-.183-.046-.196zm14.174 0c-.01-.01-.047-.042-.167-.042H34.08v5.546h4.185c.124 0 .163-.03.172-.04.01-.01.04-.048.04-.172V9.403c0-.137-.033-.184-.045-.197zm-.167 5.802c.34 0 .51-.17.51-.51V9.403c0-.358-.17-.537-.51-.537h-4.483v6.142h4.483zm14.677-5.802c-.01-.01-.046-.042-.166-.042h-4.51c-.12 0-.157.031-.167.042-.013.013-.046.06-.046.197v11.639c0 .136.033.183.046.197.01.01.046.041.166.041h4.51c.12 0 .157-.03.167-.041.013-.014.046-.06.046-.197V9.402c0-.136-.033-.183-.046-.196zm-28.34.197c0-.358-.17-.537-.51-.537h-4.51c-.34 0-.51.18-.51.537v11.639c0 .357.17.536.51.536h4.51c.34 0 .51-.178.51-.536V9.402zm28.684 0c0-.358-.17-.537-.51-.537h-4.51c-.34 0-.51.18-.51.537v11.639c0 .357.17.536.51.536h4.51c.34 0 .51-.178.51-.536V9.402z"/><path d="M2.935 31.76v10.528l4.52-10.528h2.877v16.091H7.866V37.254L3.305 47.851H.469v-16.09h2.466zm18.844 0v16.091h-2.507V41.07h-4.397v6.781h-2.507v-16.09h2.507v6.689h4.397v-6.69h2.507zm9.731 0c.452 0 .822.161 1.11.483.274.306.41.697.41 1.172v3.218h-2.506v-1.815c0-.307-.13-.46-.39-.46H26.68c-.26 0-.39.153-.39.46v9.976c0 .306.13.46.39.46h3.453c.26 0 .39-.154.39-.46v-1.816h2.507v3.218c0 .46-.137.85-.411 1.172-.288.322-.658.483-1.11.483h-6.205c-.439 0-.802-.16-1.09-.483a1.697 1.697 0 01-.43-1.172v-12.78c0-.476.143-.866.43-1.173a1.4 1.4 0 011.09-.483h6.205zm12.43 2.598h-3.35V47.85h-2.507V34.358h-3.39V31.76h9.246v2.598zm9.032-2.598c.452 0 .822.161 1.11.483.273.306.41.697.41 1.172v7.172c0 .46-.137.85-.41 1.173-.288.321-.658.482-1.11.482h-4.808v5.61h-2.507V31.76h7.315zm-.986 3.058c0-.307-.13-.46-.39-.46h-3.432v5.264h3.431c.26 0 .39-.146.39-.437v-4.367zm13.652 11.378c0 .46-.137.85-.41 1.172-.288.322-.658.483-1.11.483h-6.205c-.439 0-.802-.16-1.09-.483a1.697 1.697 0 01-.43-1.172v-3.47h2.506v2.068c0 .306.13.46.39.46h3.452c.26 0 .39-.154.39-.46v-3.747h-5.218c-.439 0-.802-.16-1.09-.483a1.697 1.697 0 01-.43-1.172V31.76h2.506v6.23c0 .306.13.46.39.46h3.452c.26 0 .39-.154.39-.46v-6.23h2.507v14.436zm9.982-7.746c.452 0 .822.16 1.11.482.274.307.41.697.41 1.173v7.746h-2.506v-6.344c0-.291-.13-.437-.39-.437h-4.048v6.781h-2.507v-16.09h2.507v6.689h2.876l1.5-6.69h2.59l-1.747 6.69h.205zm12.263-4.092h-3.35V47.85h-2.506V34.358h-3.39V31.76h9.246v2.598zm9.402-2.598c.453 0 .822.161 1.11.483.274.306.411.697.411 1.172v12.781c0 .46-.137.85-.411 1.172-.288.322-.657.483-1.11.483H91.08c-.438 0-.801-.16-1.089-.483a1.697 1.697 0 01-.431-1.172v-12.78c0-.476.144-.866.431-1.173.288-.322.65-.483 1.09-.483h6.204zm-.986 3.058c0-.307-.13-.46-.39-.46h-3.452c-.26 0-.39.153-.39.46v9.976c0 .306.13.46.39.46h3.452c.26 0 .39-.154.39-.46v-9.976zm11.833-3.058c.452 0 .822.161 1.11.483.274.306.411.697.411 1.172v7.172c0 .46-.137.85-.411 1.173-.288.321-.658.482-1.11.482h-4.808v5.61h-2.506V31.76h7.314zm-.986 3.058c0-.307-.13-.46-.39-.46h-3.432v5.264h3.432c.26 0 .39-.146.39-.437v-4.367z"/><path fill-rule="evenodd" clip-rule="evenodd" d="M3.084 31.611v9.952l4.273-9.952h3.124v16.39H7.717V37.977L3.403 48H.32V31.611h2.764zm4.782 5.643v10.597h2.466v-16.09H7.455l-4.52 10.527V31.76H.469v16.091h2.836l4.561-10.597zm14.062-5.643v16.39h-2.805v-6.782h-4.1V48H12.22V31.611h2.805v6.69h4.099v-6.69h2.805zm-2.656 6.838h-4.397V31.76h-2.507v16.091h2.507V41.07h4.397v6.781h2.507v-16.09h-2.507v6.689zm13.908-1.666h-2.805v-1.965c0-.136-.03-.21-.063-.249-.028-.034-.078-.062-.178-.062H26.68c-.1 0-.15.028-.178.062-.033.039-.063.113-.063.249v9.976c0 .136.03.21.063.248.028.034.078.063.178.063h3.453c.1 0 .15-.029.178-.063.033-.038.063-.112.063-.248v-1.965h2.805v3.367c0 .492-.148.918-.447 1.269l-.002.003c-.317.355-.729.532-1.22.532h-6.206c-.48 0-.884-.178-1.2-.532a1.845 1.845 0 01-.47-1.272v-12.78c0-.508.155-.936.47-1.273.317-.354.72-.532 1.2-.532h6.205c.492 0 .903.178 1.22.533.303.338.45.766.45 1.271v3.367zm-8.964-4.54c-.288.306-.432.697-.432 1.172v12.781c0 .46.144.85.432 1.172.287.322.65.483 1.089.483h6.205c.452 0 .822-.16 1.11-.483.274-.321.41-.712.41-1.172v-3.218h-2.506v1.816c0 .306-.13.46-.39.46H26.68c-.26 0-.39-.154-.39-.46v-9.976c0-.307.13-.46.39-.46h3.453c.26 0 .39.153.39.46v1.816h2.507v-3.219c0-.475-.137-.865-.411-1.172-.288-.322-.658-.483-1.11-.483h-6.205a1.4 1.4 0 00-1.09.483zm19.872 2.264H40.74V48h-2.805V34.507h-3.39V31.61h9.544v2.896zm-6.005-.15v13.494h2.507V34.358h3.35V31.76h-9.247v2.598h3.39zm16.11 7.502c-.318.355-.729.532-1.221.532h-4.66v5.61h-2.804V31.61h7.464c.492 0 .903.178 1.22.533.303.338.45.766.45 1.271v7.172c0 .492-.148.918-.447 1.27l-.002.002zm-6.03.383h4.809c.452 0 .822-.16 1.11-.482.273-.322.41-.713.41-1.173v-7.172c0-.475-.137-.865-.41-1.172-.288-.322-.658-.483-1.11-.483h-7.315v16.091h2.507v-5.609zm17.176 5.226c-.318.355-.729.532-1.221.532h-6.205c-.48 0-.884-.178-1.2-.532a1.846 1.846 0 01-.47-1.272v-3.62h2.805v2.218c0 .136.03.21.062.248.03.034.08.063.18.063h3.451c.1 0 .15-.029.18-.063.032-.038.061-.112.061-.248v-3.598h-5.07c-.48 0-.883-.178-1.2-.532a1.846 1.846 0 01-.47-1.272v-7.78h2.806v6.378c0 .136.03.21.062.248.03.034.08.063.18.063h3.451c.1 0 .15-.029.18-.063.032-.038.061-.112.061-.248v-6.38h2.805v14.585c0 .492-.147.918-.446 1.269l-.002.003zm-2.207-6.421v3.747c0 .306-.13.46-.39.46h-3.453c-.26 0-.39-.154-.39-.46v-2.069h-2.507v3.471c0 .46.144.85.432 1.172.287.322.65.483 1.089.483h6.205c.452 0 .822-.16 1.11-.483.273-.321.41-.712.41-1.172V31.76h-2.506v6.23c0 .306-.13.46-.39.46h-3.453c-.26 0-.39-.154-.39-.46v-6.23h-2.507v7.632c0 .46.144.85.432 1.172.287.322.65.483 1.089.483h5.219zM77.29 48h-2.805v-6.493c0-.127-.029-.194-.06-.229-.028-.031-.079-.059-.181-.059h-3.899V48H67.54V31.611h2.805v6.69h2.608l1.5-6.69h2.901l-1.746 6.69h.012c.493 0 .904.177 1.221.532.302.338.449.766.449 1.272V48zm-1.875-9.55l1.746-6.69h-2.589l-1.5 6.69h-2.876v-6.69h-2.507v16.091h2.507V41.07h4.048c.26 0 .39.146.39.437v6.344h2.507v-7.746c0-.475-.137-.866-.411-1.173-.288-.322-.658-.483-1.11-.483h-.205zm12.617-3.943h-3.349V48h-2.805V34.507h-3.39V31.61h9.544v2.896zm-6.005-.15v13.494h2.507V34.358h3.349V31.76h-9.246v2.598h3.39zm16.482 13.108l-.003.003c-.317.355-.728.532-1.22.532H91.08c-.48 0-.884-.178-1.2-.532a1.846 1.846 0 01-.47-1.272v-12.78c0-.508.155-.936.471-1.273.316-.354.72-.532 1.2-.532h6.204c.493 0 .904.178 1.221.533.302.338.45.766.45 1.271v12.781c0 .492-.148.918-.447 1.269zM89.99 32.243c-.287.306-.431.697-.431 1.172v12.781c0 .46.144.85.431 1.172.288.322.65.483 1.09.483h6.204c.453 0 .822-.16 1.11-.483.274-.321.411-.712.411-1.172v-12.78c0-.476-.137-.866-.411-1.173-.288-.322-.657-.483-1.11-.483H91.08c-.438 0-.801.161-1.089.483zm19.365 9.613l-.003.003c-.317.355-.728.532-1.221.532h-4.659v5.61h-2.805V31.61h7.464c.493 0 .904.178 1.221.533.302.338.449.766.449 1.271v7.172c0 .492-.147.918-.446 1.27zm-6.032.386h4.808c.452 0 .822-.16 1.11-.482.274-.322.411-.713.411-1.173v-7.172c0-.475-.137-.865-.411-1.172-.288-.322-.658-.483-1.11-.483h-7.314v16.091h2.506v-5.609zm-51.55-7.673c-.029-.034-.079-.062-.179-.062h-3.282v4.966h3.282c.103 0 .153-.028.182-.06.03-.034.06-.101.06-.228v-4.367c0-.136-.03-.21-.063-.249zm-.179 5.053c.26 0 .39-.146.39-.437v-4.367c0-.307-.13-.46-.39-.46h-3.431v5.264h3.431zm44.493-5.053c-.029-.034-.08-.062-.18-.062h-3.451c-.1 0-.15.028-.18.062-.032.039-.061.113-.061.249v9.976c0 .136.029.21.062.248.029.034.079.063.179.063h3.452c.1 0 .15-.029.179-.063.033-.038.062-.112.062-.248v-9.976c0-.136-.03-.21-.062-.249zm10.847 0c-.029-.034-.079-.062-.179-.062h-3.283v4.966h3.283c.102 0 .153-.028.181-.06.031-.034.06-.101.06-.228v-4.367c0-.136-.029-.21-.062-.249zm-.179 5.053c.26 0 .39-.146.39-.437v-4.367c0-.307-.13-.46-.39-.46h-3.432v5.264h3.432zm-10.457-4.804c0-.307-.13-.46-.39-.46h-3.452c-.26 0-.39.153-.39.46v9.976c0 .306.13.46.39.46h3.452c.26 0 .39-.154.39-.46v-9.976z"/><path d="M101.984.087l-2.86 2.857a.298.298 0 00.212.508h8.105a.298.298 0 00.211-.508L105.588.882a.299.299 0 00-.422 0l-.771.77a.299.299 0 01-.422 0L102.406.087a.299.299 0 00-.422 0z" fill="#F66A17"/></svg>