<svg width="74" height="393" viewBox="0 0 74 393" fill="none" xmlns="http://www.w3.org/2000/svg"><path d="M16 337.089h56v12.8H26.56v19.2l11.68.4c7.947.266 14.4.906 19.36 1.92 4.907 1.013 8.693 2.72 11.36 5.12 2.613 2.346 3.92 5.653 3.92 9.92 0 1.76-.293 3.893-.88 6.4l-10.96-.8c.213-.694.32-1.467.32-2.32 0-3.094-1.813-5.254-5.44-6.48-3.68-1.227-9.413-2-17.2-2.32l-22.72-.8v-43.04zm0-64.547l44.32 23.84c4.267 2.294 7.493 5.067 9.68 8.32 2.187 3.2 3.28 6.694 3.28 10.48 0 2.934-.64 5.974-1.92 9.12l-9.84-3.12c.693-2.24 1.04-4.106 1.04-5.6 0-1.6-.373-3.04-1.12-4.32-.8-1.28-2.027-2.453-3.68-3.52l-.64-.48L16 329.342v-13.84l30.08-14.88L16 285.262v-12.72zm0-53.33h56v12.8H51.84c1.76 4.853 2.64 9.36 2.64 13.52 0 7.52-1.787 13.28-5.36 17.28-3.627 4-8.827 6-15.6 6H16v-12.8h16.08c3.84 0 6.747-1.013 8.72-3.04 1.92-2.08 2.88-5.067 2.88-8.96 0-4.267-.827-8.267-2.48-12H16v-12.8zm0-87.842h56v73.92H16v-12.88h45.44v-17.68H16v-12.88h45.44v-17.6H16v-12.88zm0-13.893v-12.88h36.48L16 77.877v-12.16h56v12.8H35.6l36.4 26.72v12.24H16zm0-65.703v-12.88h36.48L16 12.174V.014h56v12.8H35.6L72 39.534v12.24H16zm-3.6-25.84c0 10.24-4.08 15.414-12.24 15.52v-8.88c3.893-.106 5.84-2.32 5.84-6.64 0-2.133-.48-3.76-1.44-4.88-1.013-1.12-2.48-1.706-4.4-1.76v-8.88c4 .054 7.04 1.36 9.12 3.92 2.08 2.56 3.12 6.427 3.12 11.6z" fill="#F3F4F8"/></svg>