<svg width="59" height="416" viewBox="0 0 59 416" fill="none" xmlns="http://www.w3.org/2000/svg"><path d="M1 359.199l44.32 23.84c4.267 2.293 7.493 5.066 9.68 8.32 2.187 3.2 3.28 6.693 3.28 10.48 0 2.933-.64 5.973-1.92 9.12l-9.84-3.12c.693-2.24 1.04-4.107 1.04-5.6 0-1.6-.373-3.04-1.12-4.32-.8-1.28-2.027-2.454-3.68-3.52l-.64-.48L1 415.999v-13.84l30.08-14.88L1 371.919v-12.72zM1 328.8c0-4.96.827-9.253 2.48-12.88 1.653-3.68 4-6.507 7.04-8.48 3.04-1.973 6.64-2.96 10.8-2.96 4.107 0 7.707.987 10.8 2.96 3.04 1.973 5.387 4.8 7.04 8.48 1.6 3.627 2.4 7.92 2.4 12.88v11.28H57v12.96H1V328.8zm30 .72c0-3.893-.827-6.853-2.48-8.88-1.707-2.027-4.107-3.04-7.2-3.04-3.147 0-5.547 1.013-7.2 3.04-1.707 2.027-2.56 4.987-2.56 8.88v10.56H31v-10.56zm26.96-61.091c0 5.814-1.253 11.067-3.76 15.76-2.507 4.64-5.947 8.294-10.32 10.96-4.427 2.614-9.387 3.92-14.88 3.92s-10.427-1.306-14.8-3.92c-4.427-2.666-7.893-6.32-10.4-10.96-2.507-4.693-3.76-9.946-3.76-15.76 0-5.813 1.253-11.04 3.76-15.68 2.507-4.64 5.973-8.293 10.4-10.96 4.373-2.666 9.307-4 14.8-4s10.453 1.334 14.88 4c4.373 2.667 7.813 6.32 10.32 10.96 2.507 4.64 3.76 9.867 3.76 15.68zm-11.04 0c0-3.306-.747-6.293-2.24-8.96-1.547-2.666-3.68-4.746-6.4-6.24-2.72-1.546-5.813-2.32-9.28-2.32-3.467 0-6.56.774-9.28 2.32-2.72 1.494-4.827 3.574-6.32 6.24-1.547 2.667-2.32 5.654-2.32 8.96 0 3.307.773 6.294 2.32 8.96 1.493 2.667 3.6 4.774 6.32 6.32 2.72 1.494 5.813 2.24 9.28 2.24 3.467 0 6.56-.746 9.28-2.24 2.72-1.546 4.853-3.653 6.4-6.32 1.493-2.666 2.24-5.653 2.24-8.96zM27.8 189.006c1.013-3.414 2.667-6.027 4.96-7.84 2.293-1.814 5.12-2.72 8.48-2.72 4.96 0 8.827 1.893 11.6 5.68 2.773 3.733 4.16 9.093 4.16 16.08v27.6H1v-26.08c0-6.507 1.253-11.574 3.76-15.2 2.507-3.627 6.08-5.44 10.72-5.44 2.773 0 5.227.693 7.36 2.08 2.08 1.386 3.733 3.333 4.96 5.84zm-3.6 25.92v-12.08c0-2.827-.56-4.96-1.68-6.4-1.173-1.44-2.88-2.16-5.12-2.16-2.187 0-3.867.746-5.04 2.24-1.173 1.44-1.76 3.546-1.76 6.32v12.08h13.6zm23.2-14.24c0-6.08-2.4-9.12-7.2-9.12-4.64 0-6.96 3.04-6.96 9.12v14.24H47.4v-14.24zm-.8-75.85H57v43.36H1v-42.32h10.4v29.44h12.16v-26h10.08v26H46.6v-30.48zM1 63.008h56v12.96H34.04v25.44H57v12.96H1v-12.96h22.08v-25.44H1v-12.96zm18.4-41.15c0-6.827 1.52-12.054 4.56-15.68C27 2.498 31.507.658 37.48.658c6.347 0 11.2 2.026 14.56 6.08 3.307 4 4.96 9.653 4.96 16.96v25.28H1v-12.88h18.4v-14.24zm28 2.56c0-3.36-.827-5.974-2.48-7.84-1.653-1.92-4.053-2.88-7.2-2.88-5.813 0-8.72 3.573-8.72 10.72v11.68h18.4v-11.68z" fill="#fff"/></svg>