<svg width="73" height="471" viewBox="0 0 73 471" fill="none" xmlns="http://www.w3.org/2000/svg"><path d="M72.96 440.015c0 5.814-1.253 11.067-3.76 15.76-2.507 4.64-5.947 8.294-10.32 10.96-4.427 2.614-9.387 3.92-14.88 3.92s-10.427-1.306-14.8-3.92c-4.427-2.666-7.893-6.32-10.4-10.96-2.507-4.693-3.76-9.946-3.76-15.76 0-5.813 1.253-11.04 3.76-15.68 2.507-4.64 5.973-8.293 10.4-10.96 4.373-2.666 9.307-4 14.8-4s10.453 1.334 14.88 4c4.373 2.667 7.813 6.32 10.32 10.96 2.507 4.64 3.76 9.867 3.76 15.68zm-11.04 0c0-3.306-.747-6.293-2.24-8.96-1.547-2.666-3.68-4.746-6.4-6.24-2.72-1.546-5.813-2.32-9.28-2.32-3.467 0-6.56.774-9.28 2.32-2.72 1.494-4.827 3.574-6.32 6.24-1.547 2.667-2.32 5.654-2.32 8.96 0 3.307.773 6.294 2.32 8.96 1.493 2.667 3.6 4.774 6.32 6.32 2.72 1.494 5.813 2.24 9.28 2.24 3.467 0 6.56-.746 9.28-2.24 2.72-1.546 4.853-3.653 6.4-6.32 1.493-2.666 2.24-5.653 2.24-8.96zM16 399.392v-45.2h10.32v32.32h11.52v-15.52c0-6.774 1.413-11.92 4.24-15.44 2.827-3.574 6.907-5.36 12.24-5.36 5.6 0 9.947 1.973 13.04 5.92 3.093 3.946 4.64 9.52 4.64 16.72v26.56H16zm46.4-25.84c0-3.307-.64-5.84-1.92-7.6-1.333-1.76-3.253-2.64-5.76-2.64-4.907 0-7.36 3.413-7.36 10.24v12.96H62.4v-12.96zm-28-60.343c0-6.827 1.52-12.053 4.56-15.68 3.04-3.68 7.547-5.52 13.52-5.52 6.347 0 11.2 2.027 14.56 6.08 3.307 4 4.96 9.653 4.96 16.96v25.28H16v-12.88h18.4v-14.24zm28 2.56c0-3.36-.827-5.973-2.48-7.84-1.653-1.92-4.053-2.88-7.2-2.88-5.813 0-8.72 3.573-8.72 10.72v11.68h18.4v-11.68zM16 284.889v-12.88h56v12.88H16zm0-71.263h56v12.8H51.84c1.76 4.853 2.64 9.36 2.64 13.52 0 7.52-1.787 13.28-5.36 17.28-3.627 4-8.827 6-15.6 6H16v-12.8h16.08c3.84 0 6.747-1.013 8.72-3.04 1.92-2.08 2.88-5.067 2.88-8.96 0-4.267-.827-8.267-2.48-12H16v-12.8zm0-65.282h56v12.96H49.04v25.44H72v12.96H16v-12.96h22.08v-25.44H16v-12.96zm18.4-41.151c0-6.826 1.52-12.053 4.56-15.68 3.04-3.68 7.547-5.52 13.52-5.52 6.347 0 11.2 2.027 14.56 6.08 3.307 4 4.96 9.654 4.96 16.96v25.28H16v-12.88h18.4v-14.24zm28 2.56c0-3.36-.827-5.973-2.48-7.84-1.653-1.92-4.053-2.88-7.2-2.88-5.813 0-8.72 3.574-8.72 10.72v11.68h18.4v-11.68zM16 78.873v-12.88h56v12.88H16zm0-26.825v-12.88h36.48L16 12.448V.288h56v12.8H35.6L72 39.808v12.24H16zm-3.6-25.84c0 10.24-4.08 15.413-12.24 15.52v-8.88C4.053 32.74 6 30.528 6 26.208c0-2.133-.48-3.76-1.44-4.88-1.013-1.12-2.48-1.707-4.4-1.76v-8.88c4 .053 7.04 1.36 9.12 3.92 2.08 2.56 3.12 6.427 3.12 11.6z" fill="#F3F4F8"/></svg>