<svg width="90" height="70" viewBox="0 0 90 70" fill="none" xmlns="http://www.w3.org/2000/svg"><circle cx="80" cy="10" r="10" fill="#F3F4F8"/><circle cx="20" cy="50" r="20" fill="#F3F4F8"/><g clip-path="url(#clip0_1378:567)"><path d="M69.166 39.164v28.334a1.672 1.672 0 01-1.666 1.666h-45a1.672 1.672 0 01-1.667-1.666V39.164l.35-.266.208.266h47.217l.208-.266.35.266z" fill="#A4C2F7"/><path d="M66.666 39.164v28.334A1.672 1.672 0 0165 69.164H22.5a1.672 1.672 0 01-1.667-1.666V39.164h45.275l.208-.266.35.266z" fill="#D4E1F4"/><path d="M68.816 38.898l-.208.267-22.775 17.5h-1.667l-22.775-17.5-.208-.267 7.983-6.208 10.984-8.525 3.841-2.984a1.627 1.627 0 012.017 0l3.842 2.984 10.983 8.525 7.983 6.208z" fill="#A4C2F7"/><path d="M60.833 25.831V45.14l-2.5 1.925-12.5 9.6h-1.666l-15-11.525V25.83a1.672 1.672 0 011.666-1.666h28.334a1.67 1.67 0 011.666 1.666z" fill="#A4C2F7"/><path d="M58.333 25.831v21.234l-12.5 9.6h-1.666l-15-11.525V25.83a1.672 1.672 0 011.666-1.666h25.834a1.67 1.67 0 011.666 1.666z" fill="#E3E7F2"/><path d="M68.841 68.481c-.31.43-.81.685-1.342.683h-45a1.65 1.65 0 01-1.341-.683l19.091-14.825 3.742-2.908a1.627 1.627 0 012.017 0l3.741 2.908 19.092 14.825z" fill="#A4C2F7"/><path d="M21.158 68.481c.013.019.032.033.046.051a1.384 1.384 0 00.287.28c.053.043.108.081.166.116a1.532 1.532 0 00.347.153c.042.013.083.03.127.04.12.028.244.043.369.044H25a1.667 1.667 0 01-.368-.044c-.044-.01-.083-.027-.126-.04a1.525 1.525 0 01-.211-.08c-.047-.021-.091-.047-.136-.073a1.667 1.667 0 01-.167-.115 1.385 1.385 0 01-.287-.28c-.013-.02-.032-.033-.045-.052a1.647 1.647 0 01-.327-.983V39.165l.35-.267 7.983-6.208v-6.86a1.672 1.672 0 011.667-1.666h-2.5a1.672 1.672 0 00-1.667 1.666v6.859l-7.983 6.208-.35.266v28.334c.001.353.116.697.328.98l-.003.003zM46.25 21.369l-.242-.188a1.627 1.627 0 00-2.016 0l-3.842 2.984h2.5l3.6-2.796z" fill="#fff"/><path d="M20 67.498V39.165h1.667v28.333H20z" fill="#fff"/><path d="M20.517 61.598a.528.528 0 00.15.05c.055.01.11.015.166.017a.877.877 0 00.592-.242.858.858 0 00.175-.275.85.85 0 00-.175-.908.863.863 0 00-.275-.175.837.837 0 00-.317-.067.878.878 0 00-.591.242.845.845 0 000 1.183l.125.1a.627.627 0 00.15.075z" fill="#2E58FF"/><path d="M69.956 38.945a.871.871 0 00-.048-.144.8.8 0 00-.083-.125.818.818 0 00-.113-.132c-.014-.011-.02-.027-.034-.038l-8.011-6.224V25.83a2.5 2.5 0 00-2.5-2.5h-9.031l-3.616-2.808a2.472 2.472 0 00-3.04 0l-3.616 2.808h-9.03a2.5 2.5 0 00-2.5 2.5v6.45l-8.011 6.225a.818.818 0 00-.31.658H20v18.334a.833.833 0 001.667 0V40.434l13.655 10.604a.834.834 0 101.022-1.318L22.471 38.947l5.862-4.555v6.44a.833.833 0 001.667 0v-15c0-.461.373-.834.833-.834h28.334c.46 0 .833.373.833.833v15a.833.833 0 101.666 0v-6.44l5.863 4.556-13.898 10.792a.834.834 0 001.022 1.317l13.68-10.622v26.595L46.518 50.087a2.472 2.472 0 00-3.036 0L21.667 67.029v-2.865a.833.833 0 10-1.667 0v3.334c.003.268.05.534.14.787a.826.826 0 00.916 1.25c.421.301.926.463 1.444.463h45a2.484 2.484 0 001.448-.47.819.819 0 00.219.036.826.826 0 00.695-1.279c.088-.253.135-.519.138-.787V39.164c0-.017-.01-.032-.01-.049a.795.795 0 00-.034-.17zM44.5 21.838a.799.799 0 01.994 0l1.923 1.493h-4.834l1.917-1.492zm0 29.565a.802.802 0 01.993 0l21.8 16.928H22.707L44.5 51.403z" fill="#2E58FF"/><path d="M36.667 30.831h16.666a.833.833 0 000-1.666H36.668a.833.833 0 100 1.666zm0 5.001h16.666a.833.833 0 100-1.667H36.668a.833.833 0 000 1.667zm16.666 3.333h-7.5a.833.833 0 100 1.666h7.5a.833.833 0 000-1.666z" fill="#2E58FF"/></g><defs><clipPath id="clip0_1378:567"><path fill="#fff" transform="translate(20 20)" d="M0 0h50v50H0z"/></clipPath></defs></svg>